<svg width="18" height="13" viewBox="0 0 18 13" fill="none" xmlns="http://www.w3.org/2000/svg">
<path fill-rule="evenodd" clip-rule="evenodd" d="m271.670813,117.915273c0,-2.61 2.58,-4.73 5.77,-4.73c3.19,0 5.77,2.12 5.77,4.73l0,20.72c0,2.61 -2.58,4.73 -5.77,4.73c-3.19,0 -5.77,-2.12 -5.77,-4.73l0,-20.72l0,0zm-15.5,99.08c-0.34,0 -0.61,-1.43 -0.61,-3.2c0,-1.77 0.27,-3.2 0.61,-3.2l15.79,0c0.34,0 0.61,1.43 0.61,3.2c0,1.77 -0.27,3.2 -0.61,3.2l-15.79,0l0,0zm-50.26,-36.72c-0.34,0 -0.61,-1.43 -0.61,-3.2c0,-1.77 0.27,-3.2 0.61,-3.2l15.79,0c0.34,0 0.61,1.43 0.61,3.2c0,1.77 -0.27,3.2 -0.61,3.2l-15.79,0l0,0zm25.13,0c-0.34,0 -0.61,-1.43 -0.61,-3.2c0,-1.77 0.27,-3.2 0.61,-3.2l15.79,0c0.34,0 0.61,1.43 0.61,3.2c0,1.77 -0.27,3.2 -0.61,3.2l-15.79,0l0,0zm25.13,0c-0.34,0 -0.61,-1.43 -0.61,-3.2c0,-1.77 0.27,-3.2 0.61,-3.2l15.79,0c0.34,0 0.61,1.43 0.61,3.2c0,1.77 -0.27,3.2 -0.61,3.2l-15.79,0l0,0zm25.14,0c-0.34,0 -0.61,-1.43 -0.61,-3.2c0,-1.77 0.27,-3.2 0.61,-3.2l15.79,0c0.34,0 0.61,1.43 0.61,3.2c0,1.77 -0.27,3.2 -0.61,3.2l-15.79,0l0,0zm-75.4,18.36c-0.34,0 -0.61,-1.43 -0.61,-3.2c0,-1.77 0.27,-3.2 0.61,-3.2l15.79,0c0.34,0 0.61,1.43 0.61,3.2c0,1.77 -0.27,3.2 -0.61,3.2l-15.79,0l0,0zm25.13,0c-0.34,0 -0.61,-1.43 -0.61,-3.2c0,-1.77 0.27,-3.2 0.61,-3.2l15.79,0c0.34,0 0.61,1.43 0.61,3.2c0,1.77 -0.27,3.2 -0.61,3.2l-15.79,0l0,0zm25.13,0c-0.34,0 -0.61,-1.43 -0.61,-3.2c0,-1.77 0.27,-3.2 0.61,-3.2l15.79,0c0.34,0 0.61,1.43 0.61,3.2c0,1.77 -0.27,3.2 -0.61,3.2l-15.79,0l0,0zm25.14,0c-0.34,0 -0.61,-1.43 -0.61,-3.2c0,-1.77 0.27,-3.2 0.61,-3.2l15.79,0c0.34,0 0.61,1.43 0.61,3.2c0,1.77 -0.27,3.2 -0.61,3.2l-15.79,0l0,0zm-75.4,18.36c-0.34,0 -0.61,-1.43 -0.61,-3.2c0,-1.77 0.27,-3.2 0.61,-3.2l15.79,0c0.34,0 0.61,1.43 0.61,3.2c0,1.77 -0.27,3.2 -0.61,3.2l-15.79,0l0,0zm25.13,0c-0.34,0 -0.61,-1.43 -0.61,-3.2c0,-1.77 0.27,-3.2 0.61,-3.2l15.79,0c0.34,0 0.61,1.43 0.61,3.2c0,1.77 -0.27,3.2 -0.61,3.2l-15.79,0l0,0zm-11.37,-99.08c0,-2.61 2.58,-4.73 5.77,-4.73s5.77,2.12 5.77,4.73l0,20.72c0,2.61 -2.58,4.73 -5.77,4.73s-5.77,-2.12 -5.77,-4.73l0,-20.72l0,0zm-23.21,40.59l110.07,0l0,-23.85c0,-0.8 -0.33,-1.53 -0.86,-2.07c-0.53,-0.53 -1.26,-0.86 -2.07,-0.86l-10.54,0c-1.77,0 -3.2,-1.43 -3.2,-3.2c0,-1.77 1.43,-3.2 3.2,-3.2l10.55,0c2.57,0 4.9,1.05 6.59,2.74c1.69,1.69 2.74,4.02 2.74,6.59l0,27.06l0,65.03c0,2.57 -1.05,4.9 -2.74,6.59c-1.69,1.69 -4.02,2.74 -6.59,2.74l-104.22,0c-2.57,0 -4.9,-1.05 -6.59,-2.74c-1.69,-1.7 -2.74,-4.03 -2.74,-6.6l0,-65.03l0,-27.05c0,-2.57 1.05,-4.9 2.74,-6.59c1.69,-1.69 4.02,-2.74 6.59,-2.74l11.27,0c1.77,0 3.2,1.43 3.2,3.2c0,1.77 -1.43,3.2 -3.2,3.2l-11.27,0c-0.8,0 -1.53,0.33 -2.07,0.86c-0.53,0.53 -0.86,1.26 -0.86,2.07l0,23.85l0,0zm110.08,6.41l-110.08,0l0,61.82c0,0.8 0.33,1.53 0.86,2.07c0.53,0.53 1.26,0.86 2.07,0.86l104.22,0c0.8,0 1.53,-0.33 2.07,-0.86c0.53,-0.53 0.86,-1.26 0.86,-2.07l0,-61.82l0,0zm-66.05,-33.19c-1.77,0 -3.2,-1.43 -3.2,-3.2c0,-1.77 1.43,-3.2 3.2,-3.2l21.49,0c1.77,0 3.2,1.43 3.2,3.2c0,1.77 -1.43,3.2 -3.2,3.2l-21.49,0l0,0z" fill="#757575"/>
</svg>



